<?xml version="1.0" encoding="utf-8"?>
<!-- Generator: Adobe Illustrator 23.0.2, SVG Export Plug-In . SVG Version: 6.00 Build 0)  -->
<svg version="1.1" id="Слой_1" xmlns="http://www.w3.org/2000/svg" xmlns:xlink="http://www.w3.org/1999/xlink" x="0px" y="0px"
	 viewBox="0 0 960 960" style="enable-background:new 0 0 960 960;" xml:space="preserve">
<style type="text/css">
	.st0{fill:url(#SVGID_1_);}
	.st1{fill:url(#SVGID_2_);}
	.st2{fill:#603813;}
	.st3{fill:#754C24;}
	.st4{fill:url(#SVGID_3_);}
	.st5{fill:url(#SVGID_4_);}
	.st6{fill:url(#SVGID_5_);}
	.st7{fill:url(#SVGID_6_);}
	.st8{fill:url(#SVGID_7_);}
</style>
<g>
	<radialGradient id="SVGID_1_" cx="472.5" cy="480.5" r="444" gradientUnits="userSpaceOnUse">
		<stop  offset="0" style="stop-color:#FFDD00"/>
		<stop  offset="0.3653" style="stop-color:#FFDA02"/>
		<stop  offset="0.6041" style="stop-color:#FFD207"/>
		<stop  offset="0.8061" style="stop-color:#FFC310"/>
		<stop  offset="0.9876" style="stop-color:#FFAE1D"/>
		<stop  offset="1" style="stop-color:#FFAC1E"/>
	</radialGradient>
	<path class="st0" d="M472.5,924.5c-59.94,0-118.09-11.74-172.82-34.89c-52.87-22.36-100.35-54.38-141.13-95.15
		S85.75,706.2,63.39,653.32C40.24,598.59,28.5,540.44,28.5,480.5c0-59.94,11.74-118.09,34.89-172.82
		c22.36-52.87,54.38-100.35,95.15-141.13s88.26-72.79,141.13-95.15C354.41,48.24,412.56,36.5,472.5,36.5
		c59.94,0,118.09,11.74,172.82,34.89c52.87,22.36,100.35,54.38,141.13,95.15s72.79,88.26,95.15,141.13
		c23.15,54.74,34.89,112.88,34.89,172.82c0,59.94-11.74,118.09-34.89,172.82c-22.36,52.87-54.38,100.35-95.15,141.13
		s-88.26,72.79-141.13,95.15C590.59,912.76,532.44,924.5,472.5,924.5z"/>
	<path d="M472.5,37c59.87,0,117.95,11.73,172.63,34.85c52.81,22.34,100.24,54.32,140.97,95.05c40.73,40.73,72.71,88.16,95.05,140.97
		C904.27,362.55,916,420.63,916,480.5s-11.73,117.95-34.85,172.63c-22.34,52.81-54.32,100.24-95.05,140.97
		c-40.73,40.73-88.16,72.71-140.97,95.05C590.45,912.27,532.37,924,472.5,924s-117.95-11.73-172.63-34.85
		c-52.81-22.34-100.24-54.32-140.97-95.05c-40.73-40.73-72.71-88.16-95.05-140.97C40.73,598.45,29,540.37,29,480.5
		s11.73-117.95,34.85-172.63c22.34-52.81,54.32-100.24,95.05-140.97c40.73-40.73,88.16-72.71,140.97-95.05
		C354.55,48.73,412.63,37,472.5,37 M472.5,36C227.01,36,28,235.01,28,480.5S227.01,925,472.5,925S917,725.99,917,480.5
		S717.99,36,472.5,36L472.5,36z"/>
</g>
<g>
	<linearGradient id="SVGID_2_" gradientUnits="userSpaceOnUse" x1="471.2513" y1="807.0073" x2="477.6017" y2="49.2012">
		<stop  offset="0.1984" style="stop-color:#FEC916"/>
		<stop  offset="0.3597" style="stop-color:#FECA19"/>
		<stop  offset="0.4652" style="stop-color:#FECC21"/>
		<stop  offset="0.5547" style="stop-color:#FECF30"/>
		<stop  offset="0.6353" style="stop-color:#FED446"/>
		<stop  offset="0.71" style="stop-color:#FEDA61"/>
		<stop  offset="0.7803" style="stop-color:#FEE283"/>
		<stop  offset="0.8472" style="stop-color:#FFEBAB"/>
		<stop  offset="0.9096" style="stop-color:#FFF6D8"/>
		<stop  offset="0.9566" style="stop-color:#FFFFFF"/>
	</linearGradient>
	<circle class="st1" cx="474" cy="479" r="388"/>
</g>
<g>
	<path class="st2" d="M532.03,439.77c-1.32-22.31,35.54-43.46,59.87-51.96c40.25-14.06,75.33-3.66,91.49,1.13
		c14.01,4.15,56.54,16.76,57.61,38.4c0.45,9.07-6.48,17.9-13.55,22.59c-19.31,12.79-36.42-7.47-76.81-3.39
		c-12.72,1.29-25.37,4.74-45.18,10.17c-7.5,2.05-21.16,5.98-39.53,6.78c-12.68,0.55-18.77-0.77-23.72-4.52
		C535.67,454.03,532.39,445.81,532.03,439.77z"/>
	<path class="st3" d="M676.01,306.66c1.91-7.62,33.48-7.71,59.64,0c11.47,3.38,25.48,7.51,39.04,20.35
		c21.74,20.59,25.3,47.48,26.02,56.53c1.4,17.56-2.36,37.89-7.59,38.44c-3.35,0.35-5.13-7.63-13.01-22.61
		c-4.77-9.06-15.55-29.56-32.53-44.09c-8.75-7.49-9.5-5.14-31.45-18.09C691.36,322.58,674.51,312.63,676.01,306.66z"/>
</g>
<g>
	<path class="st2" d="M423.97,439.77c1.32-22.31-35.54-43.46-59.87-51.96c-40.25-14.06-75.33-3.66-91.49,1.13
		c-14.01,4.15-56.54,16.76-57.61,38.4c-0.45,9.07,6.48,17.9,13.55,22.59c19.31,12.79,36.42-7.47,76.81-3.39
		c12.72,1.29,25.37,4.74,45.18,10.17c7.5,2.05,21.16,5.98,39.53,6.78c12.68,0.55,18.77-0.77,23.72-4.52
		C420.33,454.03,423.61,445.81,423.97,439.77z"/>
	<path class="st3" d="M279.99,306.66c-1.91-7.62-33.48-7.71-59.64,0c-11.47,3.38-25.48,7.51-39.04,20.35
		c-21.74,20.59-25.3,47.48-26.02,56.53c-1.4,17.56,2.36,37.89,7.59,38.44c3.35,0.35,5.13-7.63,13.01-22.61
		c4.77-9.06,15.55-29.56,32.53-44.09c8.75-7.49,9.5-5.14,31.45-18.09C264.64,322.58,281.49,312.63,279.99,306.66z"/>
</g>
<path class="st2" d="M484.99,790c35.68-6.08,86.06-19.18,138.62-50.12c113.53-66.83,197.54-193.51,171.68-228.2
	c-26.9-36.08-140.56,70.59-336.96,66.11c-177.03-4.03-280.14-95.15-306.04-60.78c-23.72,31.47,44.97,131.47,118.36,189.81
	C352.15,771.6,440.72,786.03,484.99,790z"/>
<radialGradient id="SVGID_3_" cx="482.2212" cy="593.4357" r="438.3211" gradientUnits="userSpaceOnUse">
	<stop  offset="0" style="stop-color:#FFFFFF"/>
	<stop  offset="0.9494" style="stop-color:#000000"/>
</radialGradient>
<path class="st4" d="M193.88,545.81c14.19-15.5,57.25,10.96,116.23,28.79c65.52,19.81,119.18,19.44,155.68,19.19
	c32.3-0.22,110.07-0.75,199.4-34.12c51.7-19.31,92.32-44.04,105.57-29.86c9.34,10-0.75,33.1-2.13,36.26
	c-6.32,14.46-25.07,44.87-137.56,72.51c-44.94,11.04-102.85,24.82-182.34,22.39c-52.18-1.6-84.79-9.3-149.29-24.53
	c-62.71-14.81-91.18-27.39-103.43-53.32C195.09,581.18,183.86,556.76,193.88,545.81z"/>
<g>
	
		<linearGradient id="SVGID_4_" gradientUnits="userSpaceOnUse" x1="288.9803" y1="503.5356" x2="289.7096" y2="830.7017" gradientTransform="matrix(0.8587 0.5125 -0.5125 0.8587 255.6108 -157.4534)">
		<stop  offset="0" style="stop-color:#CCE0F4"/>
		<stop  offset="0.0305" style="stop-color:#C3DCF2"/>
		<stop  offset="0.0812" style="stop-color:#A9D2EE"/>
		<stop  offset="0.146" style="stop-color:#80C2E7"/>
		<stop  offset="0.2213" style="stop-color:#47ACDE"/>
		<stop  offset="0.2702" style="stop-color:#1E9CD7"/>
		<stop  offset="0.8652" style="stop-color:#0075BE"/>
		<stop  offset="0.9944" style="stop-color:#005B97"/>
	</linearGradient>
	<path class="st5" d="M237.85,437.8c-3.66-2.64-10.05,0.35-17.11,4.1c-44.43,23.61-92.02,64.99-105.81,71.99
		c-18.23,9.26-17.93,7.77-27.47,13.55c-20.95,12.68-52.57,31.82-63.03,67.1c-10.39,35.04,3.53,74.44,28.75,98.87
		c29.48,28.56,66.44,28.92,76.5,29.02c12.35,0.12,43.86,0.43,69.25-22.22c27.99-24.97,29.9-61.23,30.58-74.05
		c1.15-21.79-4.69-22.76-7.03-54.13c-3.08-41.35,5.18-77.19,6.05-81.12C235.11,461.25,244.53,442.63,237.85,437.8z"/>
	
		<radialGradient id="SVGID_5_" cx="289.0309" cy="662.0095" r="152.8959" fx="287.5618" fy="636.5611" gradientTransform="matrix(0.8587 0.5125 -0.5125 0.8587 255.6108 -157.4534)" gradientUnits="userSpaceOnUse">
		<stop  offset="0" style="stop-color:#CCE0F4"/>
		<stop  offset="0.0629" style="stop-color:#C7DEF3"/>
		<stop  offset="0.1347" style="stop-color:#B9D9F1"/>
		<stop  offset="0.2109" style="stop-color:#A3D0ED"/>
		<stop  offset="0.2901" style="stop-color:#83C3E8"/>
		<stop  offset="0.3718" style="stop-color:#59B3E1"/>
		<stop  offset="0.4543" style="stop-color:#28A0D9"/>
		<stop  offset="0.4692" style="stop-color:#1E9CD7"/>
		<stop  offset="0.9601" style="stop-color:#0075BE"/>
	</radialGradient>
	<path class="st6" d="M208.78,481.66c-1.81-0.97-4.94,2.22-9.9,6.68c0,0-25.99,23.24-58.26,39.64c-10.04,5.1-9.87,4.28-15.13,7.46
		c-11.54,6.98-28.95,17.52-34.71,36.95c-5.72,19.29,1.94,40.99,15.83,54.44c16.23,15.72,36.58,15.92,42.12,15.98
		c6.8,0.07,24.15,0.24,38.13-12.23c15.41-13.75,16.46-33.71,16.84-40.77c0.63-12-2.58-12.53-3.87-29.8
		c-1.41-18.97,1.57-34.95,3.33-44.67C206.84,495.09,211.9,483.33,208.78,481.66z"/>
</g>
<g>
	
		<linearGradient id="SVGID_6_" gradientUnits="userSpaceOnUse" x1="468.4421" y1="396.4166" x2="469.1714" y2="723.5827" gradientTransform="matrix(-0.8587 0.5125 0.5125 0.8587 911.4856 -157.4534)">
		<stop  offset="0" style="stop-color:#CCE0F4"/>
		<stop  offset="0.0305" style="stop-color:#C3DCF2"/>
		<stop  offset="0.0812" style="stop-color:#A9D2EE"/>
		<stop  offset="0.146" style="stop-color:#80C2E7"/>
		<stop  offset="0.2213" style="stop-color:#47ACDE"/>
		<stop  offset="0.2702" style="stop-color:#1E9CD7"/>
		<stop  offset="0.8652" style="stop-color:#0075BE"/>
		<stop  offset="0.9944" style="stop-color:#005B97"/>
	</linearGradient>
	<path class="st7" d="M720.25,437.8c3.66-2.64,10.05,0.35,17.11,4.1c44.43,23.61,92.02,64.99,105.81,71.99
		c18.23,9.26,17.92,7.77,27.47,13.55c20.95,12.68,52.57,31.82,63.03,67.1c10.39,35.04-3.53,74.44-28.75,98.87
		c-29.48,28.56-66.44,28.92-76.5,29.02c-12.35,0.12-43.86,0.43-69.25-22.22c-27.99-24.97-29.9-61.23-30.58-74.05
		c-1.15-21.79,4.69-22.76,7.03-54.13c3.08-41.35-5.18-77.19-6.05-81.12C722.99,461.25,713.56,442.63,720.25,437.8z"/>
	
		<radialGradient id="SVGID_7_" cx="468.4927" cy="554.8905" r="152.8959" fx="467.0236" fy="529.4421" gradientTransform="matrix(-0.8587 0.5125 0.5125 0.8587 911.4856 -157.4534)" gradientUnits="userSpaceOnUse">
		<stop  offset="0" style="stop-color:#CCE0F4"/>
		<stop  offset="0.0629" style="stop-color:#C7DEF3"/>
		<stop  offset="0.1347" style="stop-color:#B9D9F1"/>
		<stop  offset="0.2109" style="stop-color:#A3D0ED"/>
		<stop  offset="0.2901" style="stop-color:#83C3E8"/>
		<stop  offset="0.3718" style="stop-color:#59B3E1"/>
		<stop  offset="0.4543" style="stop-color:#28A0D9"/>
		<stop  offset="0.4692" style="stop-color:#1E9CD7"/>
		<stop  offset="0.9601" style="stop-color:#0075BE"/>
	</radialGradient>
	<path class="st8" d="M749.32,481.66c1.81-0.97,4.94,2.22,9.9,6.68c0,0,25.99,23.24,58.26,39.64c10.04,5.1,9.87,4.28,15.13,7.46
		c11.54,6.98,28.95,17.52,34.71,36.95c5.72,19.29-1.94,40.99-15.83,54.44c-16.23,15.72-36.58,15.92-42.12,15.98
		c-6.8,0.07-24.15,0.24-38.13-12.23c-15.41-13.75-16.46-33.71-16.84-40.77c-0.63-12,2.58-12.53,3.87-29.8
		c1.41-18.97-1.57-34.95-3.33-44.67C751.26,495.09,746.2,483.33,749.32,481.66z"/>
</g>
</svg>
